<mxfile host="app.diagrams.net" modified="2023-11-29T05:23:13.688Z" agent="Mozilla/5.0 (Windows NT 10.0; Win64; x64) AppleWebKit/537.36 (KHTML, like Gecko) Chrome/119.0.0.0 Safari/537.36" version="22.1.4" etag="owlx5Yqdpqf3wQDPL3Eh" type="github">
  <diagram name="Page-1" id="BwOkpuzFgYZrWfurTjDi">
    <mxGraphModel>
      <root>
        <mxCell id="0" />
        <mxCell id="1" parent="0" />
      </root>
    </mxGraphModel>
  </diagram>
</mxfile>
